<svg xmlns="http://www.w3.org/2000/svg" width="1240" height="1240"><path d="M976.5 2.504c-35.415 2.599-87.953 8.979-94.5 11.475-1.375.525-9.265 2.326-17.534 4.003-30.52 6.192-70.794 18.481-105.466 32.183-4.125 1.63-14.025 5.468-22 8.528-7.975 3.061-14.963 5.929-15.529 6.375-.566.446-7.091 3.358-14.5 6.472-13.845 5.819-19.281 8.314-45.971 21.097-15.885 7.608-17.26 8.298-37 18.536-22.464 11.653-40.664 21.682-60.5 33.341-7.7 4.526-15.125 8.804-16.5 9.507-1.375.703-2.725 1.575-3 1.938-.62.817-15.87 10.041-16.602 10.041-.292 0-2.128 1.238-4.079 2.75-1.951 1.512-6.838 4.775-10.861 7.25-4.022 2.475-12.576 8.1-19.009 12.5s-13.369 9.136-15.415 10.523c-2.045 1.388-9.877 7.238-17.403 13a7064.017 7064.017 0 01-17.408 13.297c-2.048 1.552-5.08 4.027-6.738 5.5a565.897 565.897 0 01-7 6.081c-11.558 9.861-26.013 24.079-36.702 36.099a37607.434 37607.434 0 00-17.775 20c-3.173 3.575-12.686 14.066-21.139 23.312-8.453 9.247-18.069 19.9-21.369 23.673-3.3 3.773-9.301 10.608-13.336 15.188-13.542 15.373-15.99 18.328-23.065 27.848-6.863 9.234-9.832 13.892-20.703 32.479-5.004 8.556-22.424 44.439-29.37 60.5-1.784 4.125-5.165 11.55-7.514 16.5-2.349 4.95-6.149 13.681-8.444 19.402-6.654 16.582-7.62 18.01-9.581 14.161-.543-1.066-3.273-5.678-6.068-10.25-2.794-4.572-6.527-10.788-8.296-13.813a479.22 479.22 0 00-7.002-11.5c-2.083-3.3-5.279-8.7-7.102-12-1.823-3.3-4.69-8.014-6.37-10.475-1.68-2.462-5.815-9.253-9.187-15.091-3.373-5.839-7.799-13.275-9.836-16.525-3.997-6.375-12.93-21.239-23.501-39.105-7.22-12.202-19.806-32.505-23.991-38.704-20.841-30.863-26.439-38.122-38.783-50.292-8.151-8.037-11.969-10.998-18.048-14-7.539-3.724-7.954-3.807-18.756-3.781-9.848.023-11.674.317-16.829 2.709-6.316 2.93-12.363 7.412-20.468 15.17L1 313.432v18.061c0 14.548.296 18.484 1.521 20.234.837 1.194 4.429 8.037 7.983 15.207 6.208 12.521 18.717 32.29 24.404 38.566 1.495 1.65 5.943 7.275 9.884 12.5 35.801 47.464 48.16 64.408 66.741 91.5 4.15 6.05 8.99 13.027 10.756 15.504 3.032 4.253 7.299 10.698 21.847 32.996 15.582 23.885 18.826 28.946 22.753 35.5a2398.56 2398.56 0 0010.402 17.122c9.976 16.264 11.675 19.109 20.534 34.378 31.056 53.527 67.262 125.339 86.214 171 2.625 6.325 6.24 14.875 8.032 19 1.793 4.125 5.837 14.25 8.988 22.5 3.15 8.25 7.113 18.6 8.805 23 5.89 15.318 17.27 49.122 22.722 67.5 3.019 10.175 6.807 22.55 8.418 27.5 3.225 9.912 9.345 33.499 13.433 51.778 1.448 6.477 3.077 12.943 3.619 14.368 1.492 3.926 9.504 44.689 12.452 63.354 1.433 9.075 3.694 22.575 5.025 30 3.166 17.658 6.109 44.725 7.503 69 .832 14.477 1.636 21.046 3.121 25.5 2.172 6.515 3.362 8.46 3.507 5.736 3.822-71.695 2.647-104.533-6.271-175.236-3.139-24.887-8.775-58.962-11.329-68.5-1.032-3.85-3.105-12.85-4.608-20-4.105-19.532-11.156-49.63-12.365-52.783-.587-1.531-4.431-16.196-8.543-32.59-4.111-16.393-7.981-31.116-8.6-32.717-.972-2.516-6.788-25.038-20.507-79.41-4.638-18.383-4.801-17.42 2.809-16.616 3.438.363 9.175 1.33 12.75 2.148 3.575.818 17.525 3.262 31 5.43 32.402 5.213 38.165 6.502 45.719 10.22 8.03 3.954 14.003 10.397 24.86 26.818 12.722 19.244 18.024 26.691 26.299 36.947 4.192 5.196 8.072 10.198 8.622 11.117 1.766 2.949 29.041 33.332 42.584 47.436 3.168 3.3 13.785 14.55 23.592 25l30.501 32.5c21.048 22.426 44.974 45.286 61.64 58.893 36.478 29.782 55.956 44.326 83.183 62.11 4.125 2.694 8.625 5.741 10 6.77 1.375 1.03 5.425 3.592 9 5.694s8.975 5.475 12 7.495c3.025 2.02 9.325 5.818 14 8.439 4.675 2.621 14.8 8.315 22.5 12.655 23.092 13.013 61.987 31.957 80.109 39.018 5.99 2.334 11.791 4.819 12.891 5.522 1.1.704 8.525 3.504 16.5 6.224s16.075 5.681 18 6.581c3.473 1.624 35.612 11.082 50 14.715 19.566 4.941 55.909 10.382 80.815 12.1 21.288 1.468 44.454-.375 71.185-5.664 11.889-2.352 27.12-6.467 29.5-7.97 1.1-.695 6.377-2.952 11.727-5.017 21.453-8.279 48.853-27.58 59.478-41.897 5.146-6.934 13.013-25.248 20.261-47.168 3.456-10.45 7.127-20.772 8.158-22.938 1.686-3.539 1.876-6.581 1.876-30.05 0-14.493-.408-26.535-.918-27.062-1.573-1.629-5.817-19.054-10.095-41.45-4.892-25.615-16.523-64.141-23.618-78.23-1.311-2.601-3.302-7.101-4.427-10-6.62-17.064-23.799-51.718-30.867-62.266-1.476-2.202-5.279-8.279-8.452-13.504-5.64-9.29-19.833-30.262-26.443-39.074-1.826-2.434-5.651-7.62-8.5-11.524-11.862-16.255-33.775-44.491-46.627-60.081-20.124-24.411-50.784-56.569-66.553-69.807-3.85-3.232-7.45-6.367-8-6.966-.55-.6-2.837-2.431-5.082-4.069-2.245-1.639-6.295-4.875-9-7.192a510.644 510.644 0 00-9.611-8c-20.986-16.933-21.957-17.794-42.519-37.732C932.08 557.536 927 552.078 927 551.426c0-1.773 12.676-13.373 19.51-17.853 7.232-4.74 21.593-18.481 29.34-28.073 7.94-9.83 10.954-13.037 34.661-36.874 19.074-19.179 47.705-50.401 51.512-56.173.837-1.27 3.097-4.029 5.022-6.131 4.95-5.406 19.351-23.97 26.517-34.182 3.335-4.752 8.51-12.135 11.5-16.407 30.111-43.01 63.232-106.488 77.344-148.233 2.045-6.05 4.358-12.403 5.14-14.118 2.068-4.532 7.027-25.144 9.116-37.882 2.491-15.191 2.475-44.643-.029-56.296-5-23.262-15.262-41.184-31.969-55.833-21.138-18.535-51.028-31.097-87.664-36.843-29.845-4.682-69.763-6.28-100.5-4.024m.5 67.602c-14.476 1.032-31.146 3.406-41.5 5.908-4.4 1.064-15.2 3.567-24 5.563-8.8 1.997-21.175 5.343-27.5 7.436a3899.123 3899.123 0 01-24.429 7.967c-7.111 2.289-14.536 4.967-16.5 5.95-1.964.983-7.846 3.244-13.071 5.025-5.225 1.781-12.65 4.719-16.5 6.53-3.85 1.81-9.925 4.495-13.5 5.967-34.33 14.128-92.039 45.463-127.5 69.23-2.75 1.843-8.671 5.795-13.158 8.781-4.487 2.987-8.479 5.949-8.871 6.583-.392.635-3.471 2.924-6.842 5.089-3.371 2.164-8.379 5.732-11.129 7.929-9.495 7.586-19.019 14.89-24.5 18.79-3.025 2.152-6.776 5.105-8.336 6.562-1.56 1.456-5.385 4.53-8.5 6.829-3.115 2.3-7.464 5.789-9.664 7.754-2.2 1.965-5.575 4.761-7.5 6.214-1.925 1.452-5.3 4.295-7.5 6.317-2.2 2.021-5.575 4.847-7.5 6.279-1.925 1.432-6.255 5.099-9.622 8.148A2418.457 2418.457 0 01535.944 297c-24.375 21.666-49.685 48.423-59.385 62.778-3.613 5.347-6.567 10.301-6.564 11.008.004 1.012 1.977 1.118 9.255.5 27.512-2.338 79.703.133 99.25 4.698 4.4 1.028 12.95 2.837 19 4.021 16.91 3.308 25.391 5.543 46 12.124 20.206 6.453 45.834 16.2 61.565 23.415 5.261 2.413 12.911 5.808 17 7.543 4.089 1.735 8.56 3.917 9.935 4.849 1.375.931 5.875 3.169 10 4.973 4.125 1.804 9.975 4.764 13 6.577 3.025 1.814 10 5.628 15.5 8.477 11.56 5.987 26.581 14.412 34.5 19.35 3.025 1.887 7.847 4.676 10.715 6.199l5.216 2.768 6.765-4.39c22.622-14.679 60.01-46.283 86.229-72.89 21.959-22.285 52.105-56.277 66.069-74.5 2.951-3.85 5.652-7.225 6.003-7.5 2.255-1.765 29.586-39.214 38.78-53.137 15.234-23.069 18.943-29.328 32.808-55.363 6.023-11.31 16.767-38.436 19.21-48.5 6.123-25.227 4.629-45.817-4.316-59.484-6.437-9.835-12.897-15.313-24.867-21.086-12.451-6.005-20.273-7.926-38.377-9.426-13.067-1.083-15.745-1.074-32.235.102M453.5 455.062c-27.535 3.696-48.689 17.478-56.269 36.661-4.263 10.787-5.57 19.366-4.973 32.636.829 18.439 5.858 29.954 18.483 42.327 4.82 4.723 10.457 8.924 16.448 12.258 16.359 9.104 29.519 12.699 57.352 15.671 14.518 1.55 16.686 1.548 33.245-.035 17.984-1.719 45.474-6.023 60.464-9.466 42.408-9.741 77.906-20.758 103.25-32.045 14.135-6.295 26.528-13.246 26.477-14.85-.025-.798-13.106-9.843-21.849-15.108a442.226 442.226 0 01-10.628-6.639c-12.232-7.952-54.028-27.958-72-34.464-4.95-1.791-11.489-4.307-14.53-5.59-14.81-6.247-55.619-16.738-77.969-20.045-12.454-1.842-47.576-2.643-57.501-1.311m365 174.288c-5.926 4.6-50.416 31.642-59.5 36.167-3.025 1.507-6.625 3.528-8 4.493-3.353 2.351-54.923 28.498-62.5 31.688-3.3 1.39-10.149 4.488-15.219 6.886-5.07 2.398-13.62 6.003-19 8.011-5.38 2.008-11.806 4.658-14.281 5.889-2.475 1.23-10.35 4.161-17.5 6.513-7.15 2.352-14.35 4.961-16 5.798-3.68 1.865-38.796 12.33-54.5 16.241-6.325 1.575-17.736 4.015-25.358 5.422-7.622 1.406-14.267 2.81-14.768 3.12-1.138.703 1.587 4.625 10.581 15.224 3.875 4.566 8.778 10.416 10.896 13 7.766 9.474 47.057 49.073 64.815 65.324 22.915 20.969 55.689 47.972 79.334 65.365 6.6 4.855 14.25 10.484 17 12.509 8.37 6.164 29.782 20.621 33.5 22.619 1.925 1.035 5.075 3.065 7 4.513 1.925 1.448 5.075 3.416 7 4.374 1.925.959 6.425 3.63 10 5.936 13.682 8.827 50.549 28.392 64.5 34.23 3.3 1.381 8.556 3.797 11.681 5.369 3.124 1.572 11.449 4.935 18.5 7.473 7.05 2.538 15.519 5.67 18.819 6.959 11.034 4.312 45.493 12.703 62.088 15.119 15.228 2.217 44.269 2.262 55.412.086 9.867-1.927 24.243-7.342 30.995-11.675 11.497-7.377 22.481-23.047 26.64-38.003 2.277-8.19 2.562-36.538.481-48-1.934-10.657-11.299-42.681-15.938-54.5-5.796-14.768-16.358-37.412-22.81-48.903A7066.774 7066.774 0 01994.191 822c-2.584-4.636-11.685-18.815-20.54-32-11.614-17.294-16.255-23.926-22.046-31.5-3.364-4.4-6.922-9.252-7.905-10.783-2.86-4.448-24.242-30.963-35.174-43.617-9.992-11.565-31.912-34.546-42.152-44.191-14.014-13.201-39.952-32.921-43.271-32.898-.882.006-2.953 1.059-4.603 2.339" fill="undefined" fill-rule="evenodd"/></svg>