<svg xmlns="http://www.w3.org/2000/svg" width="1240" height="1240"><path d="M551.5 72.082c-9.9.421-21.6 1.475-26 2.342-4.4.867-10.025 1.579-12.5 1.583-2.475.004-8.241.904-12.813 2-4.573 1.096-9.749 1.993-11.504 1.993-1.754 0-6.337.9-10.183 2s-8.136 2-9.531 2c-1.396 0-5.099.9-8.229 2-3.129 1.1-6.871 2-8.314 2-1.443 0-4.042.641-5.775 1.425-1.733.784-5.176 1.867-7.651 2.406-2.475.539-5.85 1.454-7.5 2.034-3.283 1.153-10.474 3.441-17.5 5.566-2.475.749-7.65 2.558-11.5 4.02-3.85 1.462-8.572 3.135-10.494 3.718-1.922.583-4.385 1.683-5.473 2.445-1.088.763-2.821 1.386-3.851 1.386-1.03 0-3.068.64-4.528 1.423-1.46.782-4.791 2.357-7.404 3.5a676.612 676.612 0 00-9 4.025c-2.337 1.072-5.375 2.421-6.75 2.998-1.375.577-3.175 1.455-4 1.95-.825.495-7.575 3.926-15 7.623s-15.3 7.775-17.5 9.061c-2.2 1.286-5.35 3.035-7 3.887-3.199 1.65-7.004 3.92-15.982 9.533-3.079 1.925-6.817 4.191-8.308 5.034-3.443 1.95-14.548 9.275-15.21 10.033-.275.315-3.65 2.751-7.5 5.412-3.85 2.662-8.575 6.006-10.499 7.43l-4.5 3.331c-3.606 2.667-22.614 17.816-25.436 20.271-31.22 27.166-55.423 51.945-76.664 78.489-11.326 14.155-24.913 32.434-28.901 38.882-.551.89-3.971 6.118-7.602 11.618-3.631 5.5-7.231 11.219-8 12.709-1.231 2.386-10.466 18.763-12.852 22.791-1.22 2.06-13.759 27.57-15.975 32.5-.989 2.2-2.732 6.025-3.874 8.5-1.141 2.475-3.066 7.2-4.276 10.5s-2.765 7.35-3.454 9c-2.63 6.294-5.467 14.078-5.467 15 0 .529-.849 3.22-1.886 5.981-1.037 2.76-2.881 8.394-4.097 12.519-1.216 4.125-2.93 9.75-3.808 12.5-.878 2.75-1.939 6.8-2.357 9-.419 2.2-1.467 6.925-2.329 10.5-3.138 13.021-4.471 19.658-5.491 27.352-.572 4.319-1.267 8.219-1.544 8.667-.276.447-1.162 7.489-1.967 15.647-.806 8.159-1.924 18.659-2.485 23.334-1.631 13.583-1.325 76.592.424 87.442.804 4.982 1.877 15.583 2.385 23.558.877 13.758 2.548 24.313 5.62 35.5.756 2.75 1.622 8.401 1.925 12.559.304 4.157 1.24 9.205 2.081 11.218.841 2.012 1.529 5.052 1.529 6.755 0 1.704.829 5.206 1.842 7.783 3.023 7.69 5.019 14.41 5.7 19.185.353 2.475 1.5 7.089 2.55 10.254 1.049 3.165 1.908 6.306 1.908 6.981 0 1.11 2.204 7.308 5.429 15.265.669 1.65 3.042 6.825 5.274 11.5s5.06 10.975 6.284 14a404.021 404.021 0 004.119 9.777c1.042 2.352 1.894 4.884 1.894 5.627 0 .743.646 1.887 1.436 2.543.789.655 1.715 2.464 2.057 4.02.994 4.527 21.986 45.587 25.109 49.112.769.868 1.398 1.969 1.398 2.446 0 .477 1.077 2.467 2.394 4.421a836.413 836.413 0 019.126 13.947c4.039 6.36 13.012 18.892 15.829 22.107 1.205 1.375 4.602 5.425 7.549 9s7.663 9.008 10.48 12.074c7.468 8.127 10.546 11.661 16.49 18.926 6.242 7.631 43.622 44.636 56.698 56.13 9.288 8.165 13.617 11.449 28.427 21.568 9.245 6.316 9.209 6.293 17.693 11.087 3.198 1.806 6.489 3.714 7.314 4.239.825.525 3.249 1.972 5.386 3.216 4.56 2.652 5.634 3.325 11.614 7.269 2.475 1.632 5.625 3.533 7 4.223 1.375.691 5.65 3.077 9.5 5.303 3.85 2.225 8.35 4.709 10 5.52 1.65.811 3.675 1.918 4.5 2.461.825.542 2.625 1.434 4 1.982 1.375.549 3.175 1.449 4 2 .825.552 2.625 1.452 4 2 1.375.549 3.175 1.42 4 1.938.825.517 3.75 1.917 6.5 3.111 8.819 3.828 13.909 6.15 17.698 8.075 2.034 1.033 4.521 1.878 5.528 1.878 1.006 0 2.719.623 3.807 1.386 1.088.762 3.551 1.862 5.473 2.445 1.922.583 6.644 2.244 10.494 3.69 3.85 1.447 9.025 3.233 11.5 3.97a320.15 320.15 0 017.5 2.335c10.76 3.567 35.65 10.15 46.5 12.298 3.025.599 9.115 1.941 13.532 2.983 4.418 1.041 9.596 1.893 11.507 1.893 1.911 0 5.046.48 6.968 1.067 1.921.587 9.568 1.684 16.993 2.439 7.425.754 16.65 1.914 20.5 2.577 4.749.818 22.271 1.227 54.5 1.274 39.743.058 49.46-.21 59.5-1.641 6.6-.941 15.825-2.05 20.5-2.463l8.5-.753-.36-5.5c-.198-3.025-1.205-8.2-2.237-11.5-1.032-3.3-1.883-7.222-1.89-8.715-.007-1.493-.741-4.859-1.63-7.479-.89-2.62-1.964-7.023-2.387-9.785-.698-4.556-2.079-10.855-5.156-23.521-.601-2.475-1.684-7.742-2.407-11.705-.723-3.962-1.729-8.012-2.237-9-.507-.987-1.211-4.27-1.563-7.295-.353-3.025-1.295-7.3-2.093-9.5-.799-2.2-1.472-5.404-1.496-7.12-.024-1.716-.944-5.937-2.044-9.38-1.1-3.443-2-7.536-2-9.095 0-1.559-.728-4.979-1.617-7.599-.89-2.62-1.964-7.023-2.387-9.785-.698-4.556-2.079-10.855-5.156-23.521-.601-2.475-1.684-7.742-2.407-11.705-.723-3.962-1.729-8.012-2.237-9-.507-.987-1.205-4.319-1.551-7.404-.346-3.085-1.308-7.233-2.137-9.218-.829-1.985-1.514-5.086-1.521-6.891-.007-1.805-.907-6.135-2-9.621-1.093-3.487-1.987-7.64-1.987-9.23 0-1.59-.672-4.587-1.493-6.661-.821-2.073-1.896-6.47-2.388-9.77-.809-5.433-2.114-11.484-5.281-24.5-.602-2.475-1.476-6.975-1.942-10-.466-3.025-1.514-8.65-2.329-12.5-.815-3.85-1.948-10.15-2.518-14-.57-3.85-1.466-9.25-1.991-12-.526-2.75-1.399-7.925-1.94-11.5a454.883 454.883 0 00-2.004-12c-1.016-5.483-2.457-14.12-4.254-25.5-.522-3.3-1.381-8.25-1.911-11-.529-2.75-1.424-8.15-1.989-12-.565-3.85-1.667-9.925-2.449-13.5-.782-3.575-1.702-9.2-2.043-12.5-.342-3.3-1.216-8.25-1.943-11-.727-2.75-1.626-8.32-1.997-12.377-.371-4.058-1.124-8.558-1.673-10-.549-1.443-1.421-6.33-1.936-10.86-.516-4.53-1.608-10.812-2.428-13.96-.82-3.148-1.491-7.255-1.491-9.126 0-1.872-.927-7.239-2.061-11.928-1.214-5.023-2.135-12.471-2.242-18.136-.155-8.24.154-10.327 2.169-14.613 1.292-2.75 2.928-6.35 3.635-8 1.515-3.535 13.199-28.21 14.561-30.75.516-.962 1.458-2.763 2.093-4a202.042 202.042 0 011.978-3.75c1.257-2.292 8.199-15.81 9.669-18.827.716-1.47 1.716-3.348 2.222-4.173.506-.825 1.992-3.525 3.303-6 1.31-2.475 3.867-7.2 5.681-10.5 4.791-8.717 10.411-19.13 14.031-26 1.739-3.3 3.51-6.45 3.935-7 .711-.92 5.752-10.055 10.208-18.5 1.016-1.925 2.266-4.175 2.778-5 .512-.825 2.694-4.65 4.848-8.5 2.155-3.85 5.18-9.25 6.722-12a475.595 475.595 0 004.651-8.5c1.016-1.925 2.276-4.175 2.799-5 1.536-2.421 27.635-48.356 28.409-50 .389-.825 1.697-3.143 2.909-5.152 3.582-5.939 10.087-17.09 11.702-20.059 1.608-2.956 24.043-41.529 27.699-47.624 1.209-2.016 2.652-4.656 3.206-5.866.555-1.211 2.26-4.136 3.79-6.5 1.53-2.365 3.353-5.424 4.052-6.799.698-1.375 2.375-4.3 3.725-6.5s3.039-5.125 3.753-6.5 2.55-4.434 4.08-6.799c1.53-2.364 3.235-5.289 3.79-6.5.554-1.21 1.997-3.829 3.206-5.818 1.21-1.989 3.999-6.646 6.199-10.348 2.2-3.702 4.982-8.375 6.181-10.383 1.2-2.009 2.887-5.002 3.748-6.652.862-1.65 2.469-4.35 3.571-6 1.102-1.65 2.709-4.35 3.571-6 .861-1.65 2.548-4.628 3.748-6.617 1.199-1.989 3.981-6.646 6.181-10.348 2.2-3.702 4.989-8.375 6.199-10.383 1.209-2.009 2.694-4.552 3.301-5.652.607-1.1 2.202-3.8 3.544-6 1.343-2.2 3.141-5.35 3.997-7 .855-1.65 3.544-6.15 5.975-10 2.431-3.85 5.109-8.35 5.95-10 .842-1.65 2.318-4.194 3.282-5.654.964-1.459 3.442-5.509 5.507-9 2.065-3.49 4.873-8.146 6.239-10.346 2.681-4.317 4.506-8.142 4.506-9.446 0-.448-2.587-2.044-5.75-3.546-3.163-1.502-6.425-3.134-7.25-3.627-.825-.492-2.625-1.39-4-1.995-1.375-.605-3.175-1.505-4-2-.825-.495-2.625-1.418-4-2.051a8417.92 8417.92 0 01-9.5-4.385c-3.85-1.779-9.25-4.204-12-5.39-2.75-1.185-6.664-3.033-8.698-4.107-2.034-1.074-4.509-1.956-5.5-1.96-.991-.003-3.152-.9-4.802-1.993-1.65-1.093-3.789-1.99-4.754-1.993-.964-.004-3.432-.907-5.485-2.007-2.052-1.1-4.65-2-5.774-2-1.123 0-2.984-.66-4.135-1.466-1.151-.806-3.838-1.905-5.972-2.443-3.85-.97-11.118-3.214-16.88-5.212-2.953-1.024-8.65-2.629-17.5-4.929-2.475-.644-7.322-2.021-10.771-3.06-3.449-1.04-7.275-1.89-8.503-1.89-1.228 0-5.38-.9-9.226-2-3.846-1.1-8.429-2-10.183-2-1.755 0-6.931-.897-11.504-1.993-4.572-1.096-10.421-1.996-12.998-2-2.576-.004-7.961-.696-11.966-1.539-13.805-2.904-59.115-4.015-97.349-2.386m399.381 15.952c-.89.505-2.194 2.392-2.898 4.192-.704 1.801-4.156 9.124-7.672 16.274-6.284 12.78-7.294 14.756-9.331 18.25-.561.963-1.717 3.1-2.569 4.75-.852 1.65-2.639 4.8-3.973 7-1.333 2.2-3.133 5.35-4 7-.866 1.65-2.661 4.8-3.987 7s-2.972 5.125-3.658 6.5c-.686 1.375-2.618 4.525-4.293 7-1.675 2.475-3.616 5.625-4.313 7-1.515 2.99-2.582 4.769-7.199 12-1.931 3.025-4.025 6.4-4.653 7.5-3.275 5.739-23.804 38.336-29.462 46.781-2.13 3.18-3.873 6.148-3.873 6.595 0 .448-.9 1.629-2 2.624-1.1.995-2 2.279-2 2.851 0 .573-1.067 2.641-2.37 4.595-4.606 6.907-19.316 29.617-22.203 34.281-1.61 2.599-5.343 8.449-8.297 13-2.953 4.55-6.778 10.675-8.5 13.611-1.721 2.936-3.918 6.536-4.882 8-.964 1.464-2.445 4.012-3.291 5.662-.846 1.65-2.614 4.8-3.929 7s-3.087 5.35-3.939 7c-.852 1.65-1.988 3.675-2.526 4.5-1.267 1.945-16.513 29.037-17.446 31-.392.825-1.813 3.3-3.158 5.5-1.344 2.2-3.141 5.35-3.992 7-.852 1.65-2.624 4.8-3.939 7s-3.087 5.35-3.939 7c-.852 1.65-1.937 3.675-2.411 4.5-.475.825-1.365 2.4-1.98 3.5-.614 1.1-2.788 4.925-4.831 8.5-7.102 12.431-7.715 13.52-9.577 17-1.029 1.925-2.957 5.3-4.283 7.5-1.326 2.2-2.739 4.675-3.139 5.5-.967 1.993-23.17 41.079-24.427 43-.54.825-1.678 2.85-2.53 4.5-.852 1.65-2.624 4.8-3.939 7s-3.087 5.35-3.939 7c-.851 1.65-2.648 4.8-3.992 7-1.345 2.2-2.725 4.675-3.065 5.5-.341.825-1.041 2.175-1.555 3-.515.825-1.491 2.625-2.169 4-.678 1.375-2.216 3.975-3.417 5.778-1.201 1.803-3.151 5.178-4.334 7.5a173.563 173.563 0 01-4.527 8.222c-1.307 2.2-2.936 5.125-3.619 6.5-.683 1.375-1.909 3.298-2.725 4.274-2.649 3.168-.048 3.897 6.141 1.722 3.123-1.098 6.97-1.996 8.547-1.996 1.578 0 5.485-.9 8.682-2s7.332-2 9.189-2c1.856 0 5.048-.703 7.093-1.562 2.045-.859 6.418-1.931 9.718-2.382 3.3-.452 8.925-1.512 12.5-2.356 3.575-.844 10.775-2.437 16-3.541 5.225-1.103 11.75-2.52 14.5-3.15 2.75-.629 7.984-1.564 11.632-2.079 3.647-.514 8.541-1.609 10.876-2.433 2.334-.823 5.651-1.497 7.371-1.497 1.72 0 6.275-.9 10.121-2s8.346-2 10-2 6.154-.9 10-2 8.441-2 10.21-2c1.769 0 6.946-.865 11.503-1.923 10.522-2.442 17.074-3.735 28.053-5.539 4.821-.791 9.24-1.733 9.82-2.091.58-.359 4.285-1.053 8.234-1.543s10.105-1.553 13.68-2.362c3.575-.809 9.2-1.94 12.5-2.513 3.3-.574 8.362-1.49 11.25-2.036s7.388-1.393 10-1.881A2011.53 2011.53 0 00950 513.16c10.088-1.953 16.446-3.137 22.5-4.189 3.3-.573 8.925-1.698 12.5-2.499 3.575-.801 9.522-1.874 13.216-2.384 3.693-.51 7.203-1.229 7.799-1.597.596-.369 4.999-1.272 9.784-2.009 4.786-.736 10.726-1.795 13.201-2.353 2.475-.558 7.2-1.493 10.5-2.079 9.222-1.635 16.165-2.983 26-5.045a1243.627 1243.627 0 0126-5.174c2.75-.52 6.8-1.387 9-1.927 2.2-.541 7.6-1.584 12-2.319 4.4-.735 9.125-1.782 10.5-2.327 1.375-.544 5.2-1.303 8.5-1.685 3.3-.382 7.8-1.296 10-2.031 2.2-.735 6.7-1.805 10-2.379 8.396-1.46 15.766-3.004 24.5-5.133 7.06-1.721 10.497-2.478 23.25-5.116 10.568-2.187 12.626-2.948 13.245-4.898.339-1.067.173-2.767-.367-3.777-.541-1.01-1.304-4.74-1.696-8.288-.392-3.548-1.549-9.097-2.572-12.331-1.023-3.234-1.876-7.059-1.895-8.5-.02-1.441-.679-3.745-1.465-5.12s-1.445-3.503-1.465-4.729c-.032-2.04-1.857-8.539-5.693-20.271-.809-2.475-1.865-6.341-2.346-8.59-.482-2.25-1.514-5.625-2.295-7.5-1.634-3.927-4.197-11.412-6.134-17.91-1.858-6.235-3.525-10.794-5.706-15.61-1.023-2.26-1.861-4.565-1.861-5.122 0-.964-1.741-5.256-6.192-15.268-1.1-2.475-2.698-6.075-3.551-8-1.541-3.476-2.339-5.163-4.257-9l-2-4c-1.628-3.257-3.255-6.398-4.141-8a281.785 281.785 0 01-2.644-5c-1.793-3.459-7.836-14.055-11.715-20.54l-5.256-8.785c-1.791-2.992-3.929-5.998-4.75-6.68-.822-.682-1.494-1.651-1.494-2.152 0-.502-2.696-4.61-5.99-9.128l-7.75-10.63c-.968-1.328-2.21-2.903-2.76-3.5-.55-.597-3.011-3.785-5.47-7.085-11.055-14.839-39.682-45.233-57.932-61.508-4.62-4.12-10.245-9.142-12.5-11.158-2.254-2.016-11.073-9.093-19.598-15.726C1000.023 117.786 996.303 115 995.487 115c-.384 0-1.938-1.013-3.454-2.25-1.515-1.237-3.605-2.804-4.644-3.482a1102.71 1102.71 0 01-5.683-3.75c-2.087-1.385-3.965-2.518-4.172-2.518-.208 0-3.45-2.067-7.206-4.594-3.755-2.527-8.403-5.453-10.328-6.503-1.925-1.049-4.4-2.556-5.5-3.348-1.342-.966-2.532-1.137-3.619-.521M1128 531.552c-1.925.734-4.947 1.361-6.715 1.392-1.768.031-5.175.721-7.57 1.535-2.396.813-7.315 1.897-10.933 2.41-3.618.512-7.411 1.37-8.43 1.906-1.018.536-4.327 1.285-7.352 1.664-3.025.379-7.3 1.281-9.5 2.004-2.2.724-6.925 1.801-10.5 2.394-6.485 1.076-8.287 1.469-21.5 4.692-3.85.938-9.475 2.04-12.5 2.447-3.025.407-7.653 1.475-10.285 2.372-2.632.898-6.061 1.632-7.62 1.632-1.559 0-5.652.9-9.095 2-3.443 1.1-7.722 2-9.508 2-1.786 0-4.765.625-6.62 1.389-1.855.764-5.847 1.695-8.872 2.068-3.025.374-7.525 1.293-10 2.042-2.475.75-6.525 1.65-9 2.001-2.475.351-6.525 1.243-9 1.983-2.475.74-6.836 1.621-9.692 1.958-2.855.337-6.778 1.275-8.718 2.086-1.939.81-4.9 1.473-6.579 1.473-1.679 0-6.306.871-10.282 1.935-7.323 1.96-12.184 3.019-25.729 5.604-4.125.787-8.444 1.847-9.597 2.355-1.154.508-4.754 1.25-8 1.649-3.247.399-7.028 1.174-8.403 1.722-1.375.549-5.65 1.55-9.5 2.225-7.037 1.234-10.105 1.909-23 5.065-3.85.942-9.25 2.034-12 2.427-2.75.393-7.7 1.422-11 2.286-6.859 1.797-14.351 3.391-23 4.895-3.3.574-7.8 1.653-10 2.398-2.2.746-6.475 1.663-9.5 2.039-3.025.376-6.625 1.108-8 1.625-1.375.518-5.65 1.522-9.5 2.232-7.231 1.332-11.041 2.176-23 5.092-3.85.939-9.475 2.04-12.5 2.447-3.025.407-7.653 1.475-10.285 2.372-2.632.898-6.103 1.632-7.715 1.632s-5.083.734-7.715 1.632c-2.632.897-7.26 1.965-10.285 2.372-3.025.407-8.65 1.508-12.5 2.447-11.959 2.916-15.769 3.76-23 5.092-3.85.71-8.125 1.722-9.5 2.25s-5.292 1.282-8.705 1.676c-3.616.418-6.739 1.361-7.485 2.26-1.81 2.181-1.119 18.488 1.26 29.771 1.044 4.95 1.906 10.841 1.914 13.091.009 2.25.681 6.3 1.494 9s1.751 7.609 2.084 10.909c.333 3.3 1.208 8.025 1.944 10.5.736 2.475 1.623 7.2 1.971 10.5.349 3.3 1.244 8.025 1.99 10.5.745 2.475 1.617 7.019 1.935 10.099.319 3.079 1.259 7.523 2.089 9.875.83 2.353 1.497 5.458 1.483 6.902-.014 1.443.861 6.449 1.945 11.124a1162.566 1162.566 0 013.985 18c1.107 5.225 2.513 11.75 3.123 14.5.61 2.75 1.56 7.475 2.11 10.5.551 3.025 1.632 7.975 2.402 11 1.37 5.376 3.098 13.401 5.921 27.5.771 3.85 1.866 9.025 2.434 11.5.569 2.475 1.484 6.75 2.034 9.5 2.631 13.152 3.283 16.322 4.214 20.5a535.81 535.81 0 012 9.5c.548 2.75 1.451 7.025 2.006 9.5.555 2.475 1.617 8.182 2.36 12.683.742 4.501 1.78 9.001 2.306 10 .526.999 1.289 4.742 1.695 8.317.406 3.575 1.174 7.625 1.706 9 .533 1.375 1.39 5.425 1.906 9s1.569 8.75 2.339 11.5 1.855 7.7 2.41 11c1.06 6.297 2.582 13.941 4.28 21.5.557 2.475 1.472 7.2 2.035 10.5.563 3.3 1.622 8.025 2.354 10.5.733 2.475 1.624 6.975 1.982 10 .358 3.025 1.271 7.525 2.028 10 .758 2.475 1.686 6.975 2.062 10 .377 3.025 1.293 7.244 2.037 9.376.744 2.131 1.352 5.071 1.352 6.532 0 1.461.687 5.117 1.526 8.124.839 3.007 1.973 8.698 2.519 12.647.546 3.948 1.66 9.067 2.474 11.375.815 2.309 1.469 5.378 1.455 6.822-.014 1.443.87 6.449 1.965 11.124a1027.338 1027.338 0 013.776 16.89c.982 4.614 2.235 8.962 2.785 9.663.767.976 2.397 1.048 7 .308 11.016-1.772 24.797-5.138 29.718-7.259 2.045-.881 4.511-1.602 5.481-1.602 1.684 0 9.409-2.71 15.801-5.543 1.65-.731 4.431-1.612 6.181-1.957 1.749-.346 3.717-1.275 4.372-2.064.656-.79 1.875-1.436 2.71-1.436s3.592-.943 6.127-2.096c2.536-1.153 6.41-2.893 8.61-3.867 6.213-2.751 21.83-10.081 23.5-11.03.825-.469 6-3.185 11.5-6.036 5.5-2.851 11.8-6.258 14-7.57 2.2-1.313 5.35-3.096 7-3.963 1.65-.866 4.628-2.557 6.617-3.757 6.508-3.925 16.988-10.158 18.949-11.27 1.056-.599 2.711-1.777 3.677-2.619.966-.842 2.229-1.702 2.805-1.912 1.164-.422 27.121-17.925 34.952-23.567 8.297-5.978 28.642-22.386 34.43-27.766 12.793-11.892 31.835-31.583 43.07-44.539 3.025-3.488 7.525-8.648 10-11.467 8.441-9.614 10.678-12.381 23.076-28.541a5238.446 5238.446 0 019.24-12.02c.651-.836 2.524-3.536 4.163-6 1.638-2.464 4.451-6.326 6.25-8.583 1.799-2.257 3.271-4.393 3.271-4.748 0-.354 1.519-2.783 3.377-5.397 1.857-2.613 4.12-6.102 5.03-7.752.91-1.65 2.428-4.205 3.373-5.677.946-1.473 4.097-6.873 7.003-12 2.906-5.128 5.688-9.998 6.182-10.823 1.215-2.026 13.847-27.495 16.119-32.5 5.084-11.2 5.918-13.244 5.948-14.566.017-.789.692-2.308 1.5-3.375.807-1.068 1.468-2.593 1.468-3.391 0-.797.838-3.298 1.861-5.558 2.246-4.959 3.928-9.595 5.663-15.61.714-2.475 2.013-6.173 2.887-8.218.874-2.045 1.592-4.745 1.595-6 .004-1.255.7-3.612 1.547-5.237.848-1.626 1.809-5.001 2.135-7.5.326-2.5 1.146-5.67 1.823-7.045.676-1.375 1.536-4.75 1.912-7.5.375-2.75 1.299-7.025 2.052-9.5.753-2.475 1.672-7.171 2.042-10.435.37-3.264 1.117-7.089 1.659-8.5.542-1.411 1.424-6.812 1.96-12.002s1.618-12.165 2.404-15.5c.787-3.335 1.437-9.059 1.445-12.721.008-3.662.74-12.212 1.627-19 1.212-9.283 1.484-17.175 1.097-31.842-.596-22.559-2.332-52.734-3.74-65-.537-4.675-1.464-13-2.061-18.5-1.542-14.222-3.106-20.957-4.908-21.135-.825-.081-3.075.453-5 1.187" fill="undefined" fill-rule="evenodd"/></svg>